<svg width="88" height="27" viewBox="0 0 88 27" fill="none" xmlns="http://www.w3.org/2000/svg">
<path d="M14.8666 21.6753C14.8908 19.1971 14.2626 17.1818 13.4634 17.174C12.6641 17.1662 11.9966 19.1689 11.9724 21.647C11.9481 24.1253 12.5764 26.1406 13.3756 26.1484C14.1749 26.1562 14.8424 24.1535 14.8666 21.6753Z" fill="#656AE1"/>
<path d="M10.2317 21.1125C11.5921 19.0409 12.1532 17.0058 11.4851 16.5671C10.8169 16.1284 9.17259 17.4522 7.81233 19.5238C6.45202 21.5955 5.8909 23.6305 6.55899 24.0692C7.22713 24.5079 8.87143 23.1842 10.2317 21.1125Z" fill="#656AE1"/>
<path d="M6.63114 18.1402C8.89558 17.133 10.4679 15.7244 10.143 14.9941C9.81822 14.2639 7.71924 14.4884 5.45481 15.4956C3.19039 16.5029 1.61806 17.9114 1.94289 18.6417C2.26773 19.372 4.36673 19.1474 6.63114 18.1402Z" fill="#656AE1"/>
<path d="M9.871 12.9462C9.99261 12.1563 8.10547 11.2102 5.65603 10.8332C3.20652 10.4562 1.12226 10.791 1.00068 11.5809C0.879091 12.3709 2.76622 13.3169 5.2157 13.6939C7.66515 14.0709 9.74944 13.7361 9.871 12.9462Z" fill="#656AE1"/>
<path d="M10.7503 11.0643C11.2796 10.4655 10.2032 8.6495 8.34623 7.00828C6.48922 5.36707 4.55474 4.5221 4.02544 5.12099C3.49614 5.71989 4.57247 7.53586 6.4295 9.17708C8.2865 10.8183 10.221 11.6632 10.7503 11.0643Z" fill="#656AE1"/>
<path d="M12.5021 9.96449C13.2712 9.74687 13.3476 7.63725 12.6728 5.25258C11.9981 2.86789 10.8276 1.11114 10.0585 1.32877C9.28942 1.5464 9.21301 3.65598 9.88779 6.04069C10.5626 8.42533 11.7331 10.1821 12.5021 9.96449Z" fill="#656AE1"/>
<path d="M17.258 6.11495C17.9797 3.74402 17.9449 1.63333 17.1803 1.40059C16.4156 1.16784 15.2107 2.90116 14.489 5.27208C13.7673 7.64298 13.8021 9.75368 14.5668 9.98642C15.3314 10.2192 16.5363 8.48587 17.258 6.11495Z" fill="#656AE1"/>
<path d="M20.6556 9.31851C22.5444 7.7139 23.656 5.91931 23.1385 5.31021C22.621 4.70109 20.6704 5.50811 18.7817 7.11266C16.8929 8.71727 15.7813 10.5119 16.2988 11.121C16.8163 11.7301 18.7669 10.9231 20.6556 9.31851Z" fill="#656AE1"/>
<path d="M21.7796 13.852C24.2361 13.5234 26.1415 12.6148 26.0355 11.8225C25.9295 11.0304 23.8523 10.6546 21.3958 10.9832C18.9394 11.3118 17.034 12.2204 17.14 13.0126C17.246 13.8048 19.3232 14.1807 21.7796 13.852Z" fill="#656AE1"/>
<path d="M24.9478 18.8681C25.2869 18.1444 23.7427 16.7052 21.4986 15.6535C19.2545 14.6018 17.1603 14.3359 16.8211 15.0596C16.482 15.7834 18.0262 17.2227 20.2703 18.2744C22.5144 19.326 24.6086 19.5919 24.9478 18.8681Z" fill="#656AE1"/>
<path d="M20.2279 24.2081C20.9045 23.7827 20.3836 21.737 19.0645 19.6389C17.7453 17.5409 16.1274 16.185 15.4507 16.6104C14.7741 17.0358 15.295 19.0815 16.6142 21.1796C17.9333 23.2777 19.5513 24.6336 20.2279 24.2081Z" fill="#656AE1"/>
<path d="M36.419 20.24C35.603 20.24 34.867 20.1013 34.211 19.824C33.5603 19.5467 33.0216 19.152 32.595 18.64C32.1736 18.1227 31.899 17.512 31.771 16.808L33.243 16.576C33.4296 17.3013 33.8163 17.8693 34.403 18.28C34.995 18.6853 35.691 18.888 36.491 18.888C37.0083 18.888 37.475 18.808 37.891 18.648C38.3123 18.4827 38.6456 18.248 38.891 17.944C39.1363 17.64 39.259 17.28 39.259 16.864C39.259 16.608 39.2136 16.3893 39.123 16.208C39.0376 16.0213 38.9176 15.864 38.763 15.736C38.6136 15.6027 38.443 15.4907 38.251 15.4C38.059 15.3093 37.859 15.2347 37.651 15.176L34.715 14.304C34.395 14.208 34.0856 14.088 33.787 13.944C33.4883 13.7947 33.2216 13.6107 32.987 13.392C32.7523 13.168 32.5656 12.9013 32.427 12.592C32.2883 12.2773 32.219 11.9067 32.219 11.48C32.219 10.7973 32.395 10.216 32.747 9.736C33.1043 9.25067 33.587 8.88 34.195 8.624C34.803 8.368 35.4883 8.24267 36.251 8.248C37.0243 8.25333 37.715 8.392 38.323 8.664C38.9363 8.93067 39.443 9.31467 39.843 9.816C40.2483 10.3173 40.5203 10.9173 40.659 11.616L39.147 11.88C39.067 11.4107 38.8883 11.008 38.611 10.672C38.339 10.3307 37.9976 10.0693 37.587 9.888C37.1763 9.70133 36.7256 9.60533 36.235 9.6C35.7656 9.59467 35.3416 9.66933 34.963 9.824C34.5843 9.97867 34.283 10.1947 34.059 10.472C33.835 10.744 33.723 11.0587 33.723 11.416C33.723 11.768 33.8243 12.0533 34.027 12.272C34.2296 12.4853 34.4776 12.656 34.771 12.784C35.0696 12.9067 35.3603 13.008 35.643 13.088L37.835 13.72C38.0856 13.7893 38.3736 13.8853 38.699 14.008C39.0296 14.1307 39.3496 14.304 39.659 14.528C39.9683 14.7467 40.2243 15.04 40.427 15.408C40.6296 15.7707 40.731 16.2293 40.731 16.784C40.731 17.3387 40.619 17.832 40.395 18.264C40.1763 18.696 39.8696 19.0587 39.475 19.352C39.0803 19.64 38.6216 19.8587 38.099 20.008C37.5763 20.1627 37.0163 20.24 36.419 20.24ZM42.4091 9.832V8.36H43.8331V9.832H42.4091ZM42.4091 20V11.36H43.8331V20H42.4091ZM49.5695 24.08C49.1161 24.08 48.6735 24.0107 48.2415 23.872C47.8095 23.7333 47.4121 23.5227 47.0495 23.24C46.6921 22.9627 46.3935 22.6107 46.1535 22.184L47.4575 21.496C47.6708 21.9173 47.9721 22.224 48.3615 22.416C48.7561 22.608 49.1615 22.704 49.5775 22.704C50.1268 22.704 50.5828 22.6027 50.9455 22.4C51.3081 22.2027 51.5748 21.9067 51.7455 21.512C51.9215 21.1173 52.0068 20.6267 52.0015 20.04V17.68H52.1695V11.36H53.4335V20.056C53.4335 20.2907 53.4255 20.5173 53.4095 20.736C53.3988 20.9547 53.3721 21.1707 53.3295 21.384C53.2175 21.9973 52.9961 22.5013 52.6655 22.896C52.3348 23.296 51.9081 23.592 51.3855 23.784C50.8628 23.9813 50.2575 24.08 49.5695 24.08ZM49.4655 20.24C48.6601 20.24 47.9695 20.04 47.3935 19.64C46.8175 19.2347 46.3721 18.688 46.0575 18C45.7481 17.312 45.5935 16.536 45.5935 15.672C45.5935 14.808 45.7481 14.032 46.0575 13.344C46.3721 12.656 46.8175 12.1147 47.3935 11.72C47.9695 11.32 48.6575 11.12 49.4575 11.12C50.2735 11.12 50.9588 11.3173 51.5135 11.712C52.0681 12.1067 52.4868 12.648 52.7695 13.336C53.0575 14.024 53.2015 14.8027 53.2015 15.672C53.2015 16.5307 53.0575 17.3067 52.7695 18C52.4868 18.688 52.0681 19.2347 51.5135 19.64C50.9588 20.04 50.2761 20.24 49.4655 20.24ZM49.6415 18.936C50.2228 18.936 50.7001 18.7973 51.0735 18.52C51.4468 18.2373 51.7215 17.8507 51.8975 17.36C52.0788 16.864 52.1695 16.3013 52.1695 15.672C52.1695 15.032 52.0788 14.4693 51.8975 13.984C51.7215 13.4933 51.4495 13.112 51.0815 12.84C50.7135 12.5627 50.2468 12.424 49.6815 12.424C49.0948 12.424 48.6095 12.568 48.2255 12.856C47.8468 13.144 47.5641 13.5333 47.3775 14.024C47.1961 14.5147 47.1055 15.064 47.1055 15.672C47.1055 16.2853 47.1988 16.84 47.3855 17.336C47.5721 17.8267 47.8521 18.216 48.2255 18.504C48.6041 18.792 49.0761 18.936 49.6415 18.936ZM61.6592 20V15.672C61.6592 15.2613 61.6219 14.8667 61.5472 14.488C61.4779 14.1093 61.3525 13.7707 61.1712 13.472C60.9952 13.168 60.7552 12.928 60.4512 12.752C60.1525 12.576 59.7739 12.488 59.3152 12.488C58.9579 12.488 58.6325 12.5493 58.3392 12.672C58.0512 12.7893 57.8032 12.9707 57.5952 13.216C57.3872 13.4613 57.2245 13.7707 57.1072 14.144C56.9952 14.512 56.9392 14.9467 56.9392 15.448L56.0032 15.16C56.0032 14.3227 56.1525 13.6053 56.4512 13.008C56.7552 12.4053 57.1792 11.944 57.7232 11.624C58.2725 11.2987 58.9179 11.136 59.6592 11.136C60.2192 11.136 60.6965 11.224 61.0912 11.4C61.4859 11.576 61.8139 11.8107 62.0752 12.104C62.3365 12.392 62.5419 12.7173 62.6912 13.08C62.8405 13.4373 62.9445 13.8027 63.0032 14.176C63.0672 14.544 63.0992 14.8933 63.0992 15.224V20H61.6592ZM55.4992 20V11.36H56.7792V13.672H56.9392V20H55.4992ZM67.4751 20.24C66.8297 20.24 66.2884 20.1227 65.8511 19.888C65.4191 19.648 65.0911 19.3333 64.8671 18.944C64.6484 18.5547 64.5391 18.128 64.5391 17.664C64.5391 17.2107 64.6244 16.8187 64.7951 16.488C64.9711 16.152 65.2164 15.8747 65.5311 15.656C65.8457 15.432 66.2217 15.256 66.6591 15.128C67.0697 15.016 67.5284 14.92 68.0351 14.84C68.5471 14.7547 69.0644 14.6773 69.5871 14.608C70.1097 14.5387 70.5977 14.472 71.0511 14.408L70.5391 14.704C70.5551 13.936 70.4004 13.368 70.0751 13C69.7551 12.632 69.2004 12.448 68.4111 12.448C67.8884 12.448 67.4297 12.568 67.0351 12.808C66.6457 13.0427 66.3711 13.4267 66.2111 13.96L64.8591 13.552C65.0671 12.7947 65.4697 12.2 66.0671 11.768C66.6644 11.336 67.4511 11.12 68.4271 11.12C69.2111 11.12 69.8831 11.2613 70.4431 11.544C71.0084 11.8213 71.4137 12.2427 71.6591 12.808C71.7817 13.0747 71.8591 13.3653 71.8911 13.68C71.9231 13.9893 71.9391 14.3147 71.9391 14.656V20H70.6751V17.928L70.9711 18.12C70.6457 18.8187 70.1897 19.3467 69.6031 19.704C69.0217 20.0613 68.3124 20.24 67.4751 20.24ZM67.6911 19.048C68.2031 19.048 68.6457 18.9573 69.0191 18.776C69.3977 18.5893 69.7017 18.3467 69.9311 18.048C70.1604 17.744 70.3097 17.4133 70.3791 17.056C70.4591 16.7893 70.5017 16.4933 70.5071 16.168C70.5177 15.8373 70.5231 15.584 70.5231 15.408L71.0191 15.624C70.5551 15.688 70.0991 15.7493 69.6511 15.808C69.2031 15.8667 68.7791 15.9307 68.3791 16C67.9791 16.064 67.6191 16.1413 67.2991 16.232C67.0644 16.3067 66.8431 16.4027 66.6351 16.52C66.4324 16.6373 66.2671 16.7893 66.1391 16.976C66.0164 17.1573 65.9551 17.384 65.9551 17.656C65.9551 17.8907 66.0137 18.1147 66.1311 18.328C66.2537 18.5413 66.4404 18.7147 66.6911 18.848C66.9471 18.9813 67.2804 19.048 67.6911 19.048ZM74.0191 20V8.24H75.4431V20H74.0191ZM76.7235 20L80.6835 14.168L76.8275 8.48H78.5635L81.5475 12.968L84.5235 8.48H86.2675L82.4115 14.168L86.3635 20H84.6275L81.5475 15.376L78.4675 20H76.7235Z" fill="white"/>
</svg>
